<svg width="403" height="125" viewBox="0 0 403 125" fill="none" xmlns="http://www.w3.org/2000/svg">
<path d="M135 98.4V12H176.04C182.44 12 187.92 13.12 192.48 15.36C197.12 17.6 200.68 20.72 203.16 24.72C205.72 28.72 207 33.4 207 38.76C207 44.12 205.72 48.84 203.16 52.92C200.6 57 197 60.2 192.36 62.52C187.8 64.76 182.36 65.88 176.04 65.88H149.64V51.72H175.08C179.32 51.72 182.6 50.56 184.92 48.24C187.32 45.84 188.52 42.72 188.52 38.88C188.52 35.04 187.32 31.96 184.92 29.64C182.6 27.32 179.32 26.16 175.08 26.16H153.48V98.4H135Z" fill="black"/>
<path d="M245.961 98.4C245.481 96.64 245.121 94.76 244.881 92.76C244.721 90.76 244.641 88.44 244.641 85.8H244.161V56.88C244.161 54.4 243.321 52.48 241.641 51.12C240.041 49.68 237.641 48.96 234.441 48.96C231.401 48.96 228.961 49.48 227.121 50.52C225.361 51.56 224.201 53.08 223.641 55.08H206.481C207.281 49.56 210.121 45 215.001 41.4C219.881 37.8 226.561 36 235.041 36C243.841 36 250.561 37.96 255.201 41.88C259.841 45.8 262.161 51.44 262.161 58.8V85.8C262.161 87.8 262.281 89.84 262.521 91.92C262.841 93.92 263.321 96.08 263.961 98.4H245.961ZM224.601 99.6C218.521 99.6 213.681 98.08 210.081 95.04C206.481 91.92 204.681 87.8 204.681 82.68C204.681 77 206.801 72.44 211.041 69C215.361 65.48 221.361 63.2 229.041 62.16L246.921 59.64V70.08L232.041 72.36C228.841 72.84 226.481 73.72 224.961 75C223.441 76.28 222.681 78.04 222.681 80.28C222.681 82.28 223.401 83.8 224.841 84.84C226.281 85.88 228.201 86.4 230.601 86.4C234.361 86.4 237.561 85.4 240.201 83.4C242.841 81.32 244.161 78.92 244.161 76.2L245.841 85.8C244.081 90.36 241.401 93.8 237.801 96.12C234.201 98.44 229.801 99.6 224.601 99.6Z" fill="black"/>
<path d="M298.389 124.2C289.909 124.2 282.989 122.4 277.629 118.8C272.349 115.2 269.229 110.32 268.269 104.16H285.309C285.949 105.68 287.309 106.84 289.389 107.64C291.549 108.44 294.269 108.84 297.549 108.84C302.989 108.84 306.949 107.8 309.429 105.72C311.909 103.64 313.149 100.4 313.149 96V82.68L314.109 82.92C313.309 87.4 310.989 90.96 307.149 93.6C303.309 96.16 298.549 97.44 292.869 97.44C287.429 97.44 282.669 96.2 278.589 93.72C274.589 91.16 271.469 87.6 269.229 83.04C266.989 78.48 265.869 73.12 265.869 66.96C265.869 60.72 267.029 55.28 269.349 50.64C271.669 46 274.909 42.4 279.069 39.84C283.309 37.28 288.229 36 293.829 36C299.589 36 304.269 37.36 307.869 40.08C311.549 42.8 313.709 46.52 314.349 51.24L313.509 51.36V37.2H331.149V95.76C331.149 104.56 328.229 111.48 322.389 116.52C316.549 121.64 308.549 124.2 298.389 124.2ZM299.109 83.64C303.349 83.64 306.789 82.2 309.429 79.32C312.069 76.36 313.389 72.16 313.389 66.72C313.389 61.28 312.029 57.12 309.309 54.24C306.669 51.28 303.189 49.8 298.869 49.8C294.709 49.8 291.269 51.28 288.549 54.24C285.909 57.2 284.589 61.4 284.589 66.84C284.589 72.28 285.909 76.44 288.549 79.32C291.269 82.2 294.789 83.64 299.109 83.64Z" fill="black"/>
<path d="M368.181 99.6C361.461 99.6 355.541 98.28 350.421 95.64C345.381 92.92 341.421 89.16 338.541 84.36C335.741 79.48 334.341 73.88 334.341 67.56C334.341 61.24 335.741 55.72 338.541 51C341.421 46.28 345.381 42.6 350.421 39.96C355.541 37.32 361.461 36 368.181 36C374.981 36 380.901 37.32 385.941 39.96C391.061 42.6 395.021 46.28 397.821 51C400.621 55.72 402.021 61.24 402.021 67.56C402.021 73.88 400.581 79.48 397.701 84.36C394.901 89.16 390.941 92.92 385.821 95.64C380.781 98.28 374.901 99.6 368.181 99.6ZM368.181 85.44C370.981 85.44 373.501 84.72 375.741 83.28C378.061 81.84 379.901 79.8 381.261 77.16C382.621 74.44 383.301 71.2 383.301 67.44C383.301 61.92 381.821 57.68 378.861 54.72C375.981 51.68 372.421 50.16 368.181 50.16C363.941 50.16 360.341 51.68 357.381 54.72C354.501 57.76 353.061 62 353.061 67.44C353.061 71.2 353.741 74.44 355.101 77.16C356.461 79.8 358.261 81.84 360.501 83.28C362.821 84.72 365.381 85.44 368.181 85.44Z" fill="black"/>
<path d="M111.862 81.5504L111.862 81.5504C115.236 87.2691 113.231 94.5823 107.391 97.8745L111.862 81.5504ZM111.862 81.5504L67.5596 6.46544L67.5595 6.46539C62.8653 -1.48846 51.1356 -1.48846 46.4413 6.46539L46.8719 6.71952L46.4413 6.46541L2.13171 81.5503L2.13143 81.5508C1.33102 82.9106 0.811529 84.4142 0.603308 85.9744C0.395086 87.5347 0.502317 89.1202 0.918731 90.6391C1.33514 92.1579 2.05238 93.5796 3.02857 94.8218C4.00451 96.0637 5.21983 97.1014 6.60386 97.8751C6.60419 97.8753 6.60452 97.8755 6.60486 97.8756L50.9055 122.905L50.9063 122.906C52.7637 123.951 54.8639 124.5 57.0004 124.5C59.137 124.5 61.2372 123.951 63.0946 122.906L63.0954 122.905L107.391 97.8747L111.862 81.5504ZM11.5529 86.8884L11.5552 86.8843L53.0655 14.48V111.814L12.0311 88.633C11.8824 88.549 11.7524 88.437 11.6483 88.3038C11.5442 88.1705 11.4681 88.0186 11.4239 87.8568C11.3798 87.695 11.3684 87.5262 11.3905 87.3602C11.4126 87.1941 11.4677 87.0338 11.5529 86.8884ZM101.971 88.6393L101.97 88.6398L60.9356 111.814V14.48L102.446 86.8843L102.449 86.8898C102.535 87.0354 102.591 87.1962 102.613 87.3628C102.636 87.5293 102.624 87.6986 102.58 87.861C102.536 88.0234 102.46 88.1759 102.355 88.3095C102.251 88.4432 102.12 88.5554 101.971 88.6393Z" fill="black" stroke="black"/>
</svg>
